<svg width="375" height="244" viewBox="0 0 375 244" fill="none" xmlns="http://www.w3.org/2000/svg">
<g filter="url(#filter0_d_0_1008)">
<rect y="-132" width="434" height="367.029" fill="url(#paint0_linear_0_1008)"/>
<path opacity="0.21882" d="M377.771 87.7081C377.771 70.0062 363.436 55.6561 345.753 55.6561C345.54 55.6561 345.335 55.6561 345.122 55.6561V55.6561C345.125 50.8162 342.146 46.4757 337.632 44.7422C333.118 43.0087 328.004 44.2414 324.773 47.8416C319.496 44.2818 313.276 42.3846 306.914 42.3942C305.521 42.3974 304.13 42.4907 302.75 42.6736C299.28 33.6412 290.614 27.6798 280.947 27.6768V27.6768C276.76 13.324 263.217 3.77591 248.307 4.66589C233.398 5.55586 221.083 16.6475 218.63 31.3965H218.197C217.061 31.3981 215.926 31.4595 214.797 31.5803C211.055 25.413 204.677 21.3214 197.517 20.4936C190.356 19.6658 183.215 22.1948 178.168 27.3459C172.114 24.1463 165.198 22.9666 158.428 23.979C156.838 19.2132 152.381 16.0003 147.362 16.0028C147.171 16.0028 146.987 16.0028 146.804 16.0028C141.885 7.45697 132.138 2.92052 122.441 4.66393C112.744 6.40734 105.184 14.0555 103.543 23.7805H103.213C97.608 23.7591 92.1841 25.764 87.9381 29.4264C80.4389 17.9734 66.497 12.5584 53.244 15.9512C39.991 19.344 30.3575 30.7943 29.271 44.4452C22.2698 42.6271 14.8221 44.1571 9.10205 48.5888C3.382 53.0204 0.0344681 59.854 0.0366221 67.0948V235.265H367.174V111.527C373.928 105.456 377.782 96.7946 377.771 87.7081Z" fill="white"/>
<path opacity="0.251163" d="M374.738 161.016C374.743 152.185 371.228 143.717 364.971 137.492C366.917 133.942 366.747 129.607 364.529 126.222C362.31 122.836 358.406 120.953 354.379 121.325C350.352 121.698 346.859 124.266 345.298 128.001C344.042 127.857 342.78 127.783 341.516 127.78C340.686 127.78 339.871 127.825 339.056 127.883C339.107 127.148 339.144 126.362 339.144 125.59C339.146 114.371 333.496 103.907 324.117 97.7648C314.739 91.6225 302.898 90.63 292.63 95.1256C293.118 93.2033 293.364 91.2278 293.365 89.2445C293.373 77.9601 285.402 68.2479 274.342 66.0669C263.283 63.8858 252.228 69.846 247.96 80.2906C240.523 81.8332 233.839 85.8808 229.021 91.7587C217.868 85.1728 203.908 85.6779 193.258 93.0525C191.294 92.5406 189.273 92.2812 187.244 92.2806C186.427 92.2777 185.611 92.3194 184.799 92.4056C184.902 91.3617 184.953 90.3105 184.953 89.2445C185.131 77.2488 178.84 66.0873 168.492 60.0373C158.143 53.9874 145.341 53.9874 134.992 60.0373C124.644 66.0873 118.353 77.2488 118.531 89.2445C118.531 89.2445 118.531 89.3033 118.531 89.3327C115.296 89.6095 112.153 90.5531 109.3 92.1042C101.607 81.3618 88.2864 76.203 75.3739 78.965C62.4614 81.7269 52.4103 91.8848 49.774 104.837C42.7408 101.293 34.4052 101.497 27.5529 105.379C20.7005 109.262 16.2351 116.311 15.6488 124.171C15.1428 124.098 14.6326 124.059 14.1214 124.053C8.09394 124.065 3.21302 128.958 3.20898 134.992V230.516H366.322V183.129C371.755 177.049 374.752 169.174 374.738 161.016Z" fill="white"/>
<path opacity="0.3" d="M339.827 5.99024C339.561 5.80394 339.262 5.66929 338.946 5.59327C338.577 5.08462 338.087 4.67547 337.521 4.40234C337.161 1.95111 335.062 0.133944 332.587 0.131194C331.939 0.129834 331.297 0.257273 330.699 0.506114C330.433 -0.720784 329.559 -1.72671 328.383 -2.16152C327.206 -2.59632 325.889 -2.39985 324.891 -1.64049C323.777 -3.09772 321.945 -3.81094 320.14 -3.48903C318.336 -3.16713 316.863 -1.86395 316.321 -0.111402C315.855 -0.304321 315.356 -0.401812 314.852 -0.398105C313.314 -0.401962 311.936 0.554652 311.401 1.99844C310.223 2.2027 309.363 3.22752 309.367 4.4244C309.367 4.92532 309.518 5.41451 309.8 5.82851C309.175 6.22011 308.712 6.8225 308.493 7.52668C307.257 7.78312 306.413 8.93193 306.538 10.1893C306.663 11.4466 307.715 12.4071 308.977 12.4153C309.118 12.4144 309.258 12.4021 309.396 12.3786C309.535 13.3531 310.243 14.15 311.193 14.403C312.144 14.6561 313.153 14.3164 313.758 13.5401C315.292 15.2695 317.506 16.2394 319.815 16.1942C322.125 16.1489 324.299 15.093 325.765 13.3049C326.924 14.9169 328.941 15.6693 330.871 15.2103C332.802 14.7513 334.265 13.1715 334.577 11.2097C335.84 11.7199 337.282 11.4878 338.322 10.6069C339.192 11.0706 340.255 10.9695 341.022 10.35C341.789 9.73062 342.113 8.71247 341.845 7.76291C341.577 6.81334 340.768 6.11572 339.791 5.99024H339.827Z" fill="#D6E8F2"/>
<path d="M118.913 97.059H118.671C118.102 94.8978 116.562 93.1242 114.503 92.26C112.444 91.3958 110.101 91.5393 108.162 92.6482C107.481 91.4568 106.61 90.3842 105.585 89.4724C106.71 87.239 106.597 84.5808 105.285 82.4518C103.973 80.3228 101.651 79.0285 99.1519 79.0334C97.8783 79.035 96.6283 79.3777 95.5315 80.0259C93.4576 76.3322 89.6743 73.923 85.4534 73.6082C81.2324 73.2934 77.1343 75.1147 74.5365 78.46C71.2342 77.1388 67.5289 77.2699 64.328 78.821C61.127 80.3722 58.7259 83.2002 57.7126 86.6127C54.333 87.4418 51.4419 89.6239 49.7155 92.6482C48.0557 91.7034 46.0885 91.4584 44.248 91.9673C42.4075 92.4762 40.8448 93.6971 39.9046 95.3608C39.3265 95.0508 38.6806 94.8891 38.0247 94.8904C35.8062 94.8904 34.0078 96.6907 34.0078 98.9116C34.0078 101.132 35.8062 102.933 38.0247 102.933C38.6806 102.934 39.3265 102.772 39.9046 102.462C40.847 104.124 42.4119 105.341 44.2531 105.845C46.0943 106.348 48.0601 106.097 49.7155 105.146C51.7063 108.663 55.2575 111.016 59.2701 111.475C63.2827 111.935 67.2728 110.446 70.0056 107.469C72.3341 110.005 75.5955 111.48 79.0359 111.554C82.4762 111.628 85.7976 110.293 88.2321 107.858C91.0249 110.648 94.9585 111.973 98.8681 111.441C102.778 110.909 106.215 108.581 108.162 105.146C111.09 106.823 114.79 106.229 117.048 103.719C118.346 104.509 120.001 104.394 121.179 103.434C122.357 102.474 122.804 100.876 122.295 99.4429C121.787 98.0099 120.432 97.0524 118.913 97.0517V97.059Z" fill="#9ED7F2"/>
<path d="M118.671 97.059C118.099 94.8996 116.559 93.1281 114.501 92.2643C112.443 91.4005 110.101 91.5424 108.162 92.6482C107.48 91.4568 106.61 90.3842 105.584 89.4724C106.71 87.239 106.597 84.5808 105.285 82.4518C103.973 80.3228 101.65 79.0285 99.1516 79.0334C97.878 79.035 96.628 79.3777 95.5313 80.0259C93.4574 76.3322 89.6741 73.923 85.4531 73.6082C81.2321 73.2934 77.134 75.1147 74.5362 78.46C71.2339 77.1388 67.5287 77.2699 64.3277 78.821C61.1267 80.3722 58.7256 83.2002 57.7123 86.6127C54.3328 87.4419 51.4416 89.6239 49.7152 92.6482C48.0554 91.7034 46.0882 91.4584 44.2477 91.9673C42.4072 92.4762 40.8445 93.6971 39.9043 95.3609C39.3262 95.0508 38.6803 94.8891 38.0244 94.8904" fill="white"/>
<path d="M119.611 99.2056H119.457C118.936 97.1942 117.126 95.787 115.05 95.7799C114.258 95.7809 113.479 95.9859 112.789 96.3754C112.355 95.6174 111.802 94.9347 111.151 94.3537C111.859 92.9356 111.782 91.2517 110.949 89.9037C110.116 88.5557 108.644 87.736 107.061 87.7375C106.25 87.7355 105.454 87.9513 104.755 88.3624C103.422 86.0282 101.018 84.5097 98.3396 84.3107C95.6613 84.1117 93.0593 85.2583 91.3971 87.3699C89.2947 86.5374 86.9401 86.6249 84.9052 87.6113C82.8704 88.5977 81.3416 90.3926 80.6903 92.56C80.3611 92.6429 80.0374 92.7461 79.7209 92.8688C78.6536 90.8889 76.5671 89.6757 74.3204 89.7285C72.0737 89.7812 70.0464 91.091 69.0729 93.1187V93.1187C69.3148 92.6402 69.4406 92.1113 69.44 91.5749C69.4318 90.3526 68.7777 89.226 67.7208 88.6139C66.6639 88.0017 65.3623 87.9955 64.2996 88.5976C63.3052 86.8336 61.495 85.6848 59.4771 85.537C57.4592 85.3893 55.5013 86.2621 54.2611 87.8625C53.5608 87.5795 52.8132 87.4324 52.058 87.4287C49.3783 87.4272 47.0159 89.1882 46.2493 91.7587C44.6362 92.1602 43.2568 93.2038 42.4307 94.6478C41.6383 94.1911 40.6962 94.0708 39.8146 94.3139C38.933 94.557 38.1853 95.1431 37.7382 95.9416C37.4593 95.7964 37.1494 95.7208 36.835 95.7211C35.8205 95.7839 35.0298 96.6259 35.0298 97.6435C35.0298 98.661 35.8205 99.503 36.835 99.5659C37.1504 99.5673 37.4611 99.4889 37.7382 99.338C38.1853 100.136 38.933 100.723 39.8146 100.966C40.6962 101.209 41.6383 101.089 42.4307 100.632C43.3819 102.315 45.0799 103.44 46.9987 103.66C48.9176 103.879 50.8255 103.166 52.1315 101.742C53.2448 102.955 54.8041 103.661 56.4491 103.697C58.0942 103.733 59.6828 103.096 60.8482 101.933C61.9834 103.064 63.5203 103.699 65.1221 103.697C66.1306 103.7 67.1234 103.447 68.0081 102.962C68.0888 102.962 68.177 102.962 68.2651 102.962C68.6822 102.964 69.0933 102.863 69.4621 102.668C70.06 103.727 71.0546 104.504 72.226 104.827C73.3974 105.149 74.6491 104.992 75.704 104.388C76.9713 106.627 79.2316 108.123 81.7851 108.413C84.3385 108.704 86.8768 107.755 88.6139 105.859C90.1014 107.464 92.1756 108.397 94.3624 108.444C96.5491 108.491 98.6615 107.648 100.217 106.109C101.993 107.883 104.495 108.726 106.981 108.387C109.468 108.048 111.654 106.566 112.891 104.381C114.754 105.447 117.107 105.07 118.546 103.477C118.905 103.693 119.316 103.81 119.736 103.815C121.001 103.815 122.027 102.788 122.027 101.521C122.027 100.255 121.001 99.2277 119.736 99.2277L119.611 99.2056Z" fill="#E7F6FD"/>
<path d="M71.3639 94.4052C71.4232 94.9091 71.3365 95.4194 71.1142 95.8754C70.8544 96.3666 70.4941 96.7974 70.0567 97.1399C67.8427 98.6974 64.8906 98.6974 62.6765 97.1399C62.2357 96.8011 61.8747 96.3694 61.6191 95.8754C61.3981 95.4189 61.3091 94.9096 61.362 94.4052C61.5192 95.4291 62.111 96.3351 62.985 96.8899C65.0515 98.1931 67.6818 98.1931 69.7483 96.8899C70.6202 96.3343 71.2093 95.4282 71.3639 94.4052V94.4052Z" fill="#D6E8F2"/>
<path d="M101.927 91.6337C101.989 92.1377 101.902 92.6486 101.678 93.104C101.414 93.5886 101.048 94.01 100.606 94.339C98.3936 95.9031 95.4374 95.9031 93.2254 94.339C92.7862 93.9986 92.4255 93.5673 92.1679 93.0746C91.9469 92.6181 91.8579 92.1088 91.9109 91.6043C92.0699 92.6276 92.6612 93.5329 93.5338 94.0891C95.6003 95.3922 98.2306 95.3922 100.297 94.0891C101.168 93.543 101.761 92.6486 101.927 91.6337Z" fill="#D6E8F2"/>
<path d="M89.0546 98.838C89.116 99.342 89.0292 99.853 88.8049 100.308C88.5514 100.804 88.19 101.236 87.7474 101.573C85.5435 103.12 82.6079 103.12 80.404 101.573C79.9628 101.231 79.6018 100.797 79.3465 100.301C79.1222 99.8456 79.0354 99.3347 79.0968 98.8307C79.2515 99.8517 79.8409 100.755 80.7124 101.308C82.7774 102.617 85.4107 102.617 87.4757 101.308C88.3309 100.749 88.9056 99.8496 89.0546 98.838V98.838Z" fill="#D6E8F2"/>
<path opacity="0.3" d="M99.9964 -1.87573L99.945 -1.94189V-1.94189C99.9026 -2.00147 99.8559 -2.05798 99.8055 -2.11097V-2.11097L99.666 -2.258H99.6293L99.5338 -2.34622C99.0314 -3.44979 97.9327 -4.15912 96.7212 -4.16201C96.244 -4.16064 95.7736 -4.04734 95.348 -3.83119C95.1827 -3.91599 95.0108 -3.98728 94.834 -4.04438C94.0431 -5.51856 92.5445 -6.47604 90.8758 -6.57326C90.7242 -6.67444 90.5646 -6.76295 90.3985 -6.8379C90.2001 -6.93218 89.9936 -7.00845 89.7816 -7.0658C89.4511 -7.15447 89.1104 -7.19897 88.7682 -7.19812V-7.19812C88.3643 -7.19556 87.9631 -7.1311 87.5786 -7.00699C87.4446 -7.18899 87.292 -7.35652 87.1233 -7.50688C87.1233 -7.6098 87.1233 -7.71272 87.1233 -7.82299C87.1233 -7.93326 87.1233 -8.05823 87.1233 -8.18321C87.1193 -11.6042 84.35 -14.3764 80.9327 -14.3804H80.4848C80.0522 -14.3439 79.6243 -14.2651 79.207 -14.1452C78.9783 -15.9713 77.9516 -17.6014 76.4042 -18.5953C74.8569 -19.5891 72.9488 -19.844 71.1953 -19.2911C70.997 -19.225 70.8061 -19.1588 70.6151 -19.0779C69.8711 -18.7533 69.1976 -18.2863 68.6324 -17.7032C68.3203 -17.9924 67.9891 -18.2601 67.641 -18.5045C66.3422 -19.4311 64.8226 -19.9991 63.2349 -20.1512H62.787H62.3317V-20.1512C61.2967 -20.1509 60.2691 -19.9769 59.2915 -19.6366C58.8186 -19.4694 58.3594 -19.2654 57.9183 -19.0265C57.6979 -18.9015 57.485 -18.7765 57.2794 -18.6369C56.959 -18.4297 56.6546 -18.1987 56.3688 -17.9458C55.5235 -17.2294 54.8123 -16.3681 54.2685 -15.4023C53.9046 -14.7401 53.6211 -14.0367 53.424 -13.3071C53.2088 -13.3181 52.9931 -13.3181 52.7778 -13.3071V-13.3071C52.3283 -13.3075 51.88 -13.2582 51.4413 -13.1601L51.0154 -13.0572C50.7401 -12.9709 50.4703 -12.8677 50.2076 -12.7484L49.8184 -12.5573C48.688 -11.9339 47.7775 -10.9762 47.2115 -9.81521C47.0018 -9.89529 46.7856 -9.95678 46.5652 -9.999C46.3371 -10.0371 46.1062 -10.0568 45.8749 -10.0578V-10.0578C45.6286 -10.0593 45.3827 -10.0371 45.1406 -9.99164C44.4805 -9.90616 43.8547 -9.64747 43.3267 -9.2418C43.2019 -9.12912 43.0842 -9.00882 42.9743 -8.88159C42.8902 -8.78832 42.8117 -8.69013 42.7393 -8.58753C42.6086 -8.41285 42.4955 -8.22572 42.4015 -8.02883C41.7316 -7.944 41.0865 -7.72123 40.5068 -7.37456C40.3601 -7.38235 40.213 -7.38235 40.0662 -7.37456C38.4774 -7.3735 37.0493 -6.40393 36.4606 -4.92655C36.4606 -4.84568 36.4018 -4.76482 36.3725 -4.68395C36.0742 -4.6304 35.7833 -4.54156 35.5059 -4.4193H35.2489C34.8556 -4.41746 34.4647 -4.35802 34.0886 -4.24287C33.5157 -4.56848 32.8676 -4.73829 32.2087 -4.73541C30.0957 -4.73541 28.3828 -3.02063 28.3828 -0.905345C28.3791 -0.841686 28.3791 -0.777869 28.3828 -0.71421C28.3789 -0.653008 28.3789 -0.591627 28.3828 -0.530426V-0.530426C28.3811 0.0300026 28.5644 0.575288 28.9041 1.02071C29.5869 2.2016 30.8457 2.92969 32.2087 2.93207H32.2528C32.4728 4.06942 33.4675 4.89088 34.6247 4.89088C35.7819 4.89088 36.7767 4.06942 36.9967 2.93207H37.0481C37.2228 2.93229 37.3972 2.91753 37.5695 2.88796C38.5846 4.60923 40.7413 5.27476 42.5483 4.4244C42.9248 4.36793 43.291 4.25648 43.6352 4.09359C44.3235 5.21297 45.53 5.90854 46.8426 5.94265C48.1552 5.97676 49.3961 5.34479 50.1415 4.26267C51.7779 5.06853 53.7542 4.62139 54.8854 3.18937C55.2278 5.05098 56.8573 6.39688 58.7481 6.37987C59.228 6.38016 59.7038 6.29039 60.1507 6.11522C62.0524 7.94177 64.6448 8.86508 67.2717 8.65145C69.8985 8.43781 72.308 7.10771 73.8903 4.99781C74.5117 5.28545 75.1885 5.43348 75.8731 5.43154C76.9346 5.44092 77.9688 5.09411 78.8105 4.44646C79.9629 6.0314 82.1163 6.50485 83.8261 5.54916C85.0475 6.40583 86.5961 6.64885 88.0208 6.20746C89.4455 5.76607 90.5862 4.68988 91.1108 3.29229C91.1916 3.18202 91.265 3.0644 91.3385 2.94678L91.6322 2.89532C93.301 3.90549 95.4599 3.51483 96.6698 1.98375H96.7653H96.9856C97.2819 2.10388 97.5985 2.16626 97.9182 2.16753C98.1669 2.16478 98.414 2.12767 98.6526 2.05726C99.3955 2.57076 100.38 2.56534 101.117 2.04369C101.854 1.52204 102.188 0.595118 101.952 -0.277357C101.717 -1.14983 100.962 -1.78228 100.063 -1.86102L99.9964 -1.87573Z" fill="#D6E8F2"/>
<path opacity="0.3" d="M283.826 9.26896L283.781 9.2028V9.2028L283.649 9.03371V9.03371L283.502 8.88669V8.88669L283.407 8.79847C283.059 8.03431 282.415 7.44529 281.624 7.16773C280.832 6.89017 279.962 6.94813 279.214 7.3282C279.049 7.24213 278.877 7.17079 278.7 7.11501C277.91 5.64297 276.415 4.68584 274.749 4.58613C274.41 4.36543 274.038 4.19923 273.647 4.09359C273.317 4.0044 272.976 3.9599 272.634 3.96127V3.96127C272.23 3.96016 271.828 4.02471 271.444 4.1524C271.315 3.96919 271.164 3.80147 270.996 3.65251C270.996 3.54959 270.996 3.44667 270.996 3.3364C270.996 3.22613 270.996 3.10116 270.996 2.97618C270.998 1.33198 270.347 -0.245437 269.185 -1.40806C268.024 -2.57069 266.448 -3.22298 264.806 -3.22103H264.358C263.925 -3.18453 263.497 -3.10574 263.08 -2.98578C262.702 -6.09187 260.067 -8.42655 256.941 -8.4258C256.306 -8.42912 255.674 -8.33237 255.068 -8.1391C254.871 -8.079 254.678 -8.00783 254.488 -7.92591C253.744 -7.60207 253.07 -7.13499 252.506 -6.5512C252.196 -6.84026 251.867 -7.10797 251.522 -7.3525C251.061 -7.68424 250.569 -7.96986 250.053 -8.20526C249.125 -8.63282 248.132 -8.90121 247.115 -8.99921H246.668H246.212C245.175 -8.99882 244.145 -8.82489 243.165 -8.48461C242.692 -8.31595 242.233 -8.11199 241.791 -7.87445C241.578 -7.74947 241.366 -7.6245 241.153 -7.48482C240.835 -7.27403 240.531 -7.04322 240.242 -6.79379C239.402 -6.07417 238.694 -5.21342 238.149 -4.25022C237.78 -3.58979 237.494 -2.88603 237.297 -2.15508C237.082 -2.16623 236.866 -2.16623 236.651 -2.15508V-2.15508C236.202 -2.15709 235.754 -2.11025 235.314 -2.0154L234.889 -1.90513C234.613 -1.82083 234.343 -1.71767 234.081 -1.59637L233.699 -1.40524C232.567 -0.783814 231.656 0.174397 231.092 1.33683C230.88 1.25673 230.661 1.19524 230.438 1.15304C230.211 1.10847 229.98 1.08631 229.748 1.08688V1.08688C229.502 1.08959 229.256 1.11171 229.014 1.15304C228.333 1.28438 227.7 1.59383 227.178 2.04991C227.053 2.16007 226.935 2.27792 226.825 2.40278L226.59 2.69683C226.464 2.87681 226.351 3.06603 226.253 3.26289C225.585 3.34553 224.941 3.56848 224.365 3.91716C224.219 3.90612 224.071 3.90612 223.925 3.91716C222.334 3.91724 220.903 4.88663 220.312 6.36517C220.312 6.44603 220.253 6.5269 220.231 6.60776C219.932 6.6568 219.64 6.74581 219.364 6.87241H219.093C218.701 6.87672 218.313 6.93864 217.94 7.05619C216.754 6.38813 215.303 6.3995 214.128 7.08607C212.953 7.77265 212.229 9.0315 212.227 10.3937C212.227 10.4599 212.227 10.5187 212.227 10.5775C212.227 10.6363 212.227 10.7025 212.227 10.7686V10.7686C212.229 11.3284 212.412 11.8726 212.748 12.3198C213.431 13.5007 214.69 14.2288 216.053 14.2311H216.104C216.324 15.3685 217.319 16.1899 218.476 16.1899C219.633 16.1899 220.628 15.3685 220.848 14.2311V14.2311V14.2311C221.022 14.228 221.197 14.2133 221.369 14.187C222.115 15.2946 223.377 15.9413 224.71 15.8999C225.277 15.9012 225.836 15.7756 226.348 15.5323C226.727 15.477 227.096 15.3655 227.442 15.2015C228.129 16.321 229.334 17.0169 230.646 17.051C231.958 17.0852 233.198 16.4529 233.941 15.3706C234.474 15.6305 235.059 15.7662 235.652 15.7676C236.837 15.7692 237.957 15.2274 238.692 14.2973C239.014 16.1614 240.629 17.5235 242.518 17.5246C242.996 17.5241 243.469 17.4343 243.914 17.2599C245.817 19.0867 248.41 20.0102 251.038 19.7965C253.666 19.5829 256.077 18.2528 257.661 16.1425C259.267 16.8679 261.14 16.6563 262.544 15.5911C263.697 17.1761 265.85 17.6495 267.56 16.6938C268.78 17.5506 270.328 17.7936 271.751 17.3521C273.175 16.9106 274.314 15.8342 274.837 14.437C274.92 14.3264 274.996 14.211 275.065 14.0915L275.366 14.04C277.032 15.0492 279.189 14.6584 280.396 13.1284H280.521H280.749C281.045 13.25 281.361 13.3124 281.681 13.3122C281.93 13.3089 282.177 13.2718 282.416 13.2019C283.071 13.6577 283.926 13.7099 284.631 13.3372C285.337 12.9645 285.777 12.2292 285.772 11.4303C285.78 10.3138 284.936 9.37562 283.826 9.26896V9.26896Z" fill="#D6E8F2"/>
<path d="M87.5931 33.2785C87.5931 30.6058 85.431 28.438 82.7611 28.434C82.2988 28.4355 81.8389 28.5023 81.3952 28.6325C81.4482 28.2845 81.4752 27.9332 81.476 27.5812C81.5073 23.8985 78.8945 20.7242 75.2776 20.0507C71.6608 19.3773 68.0826 21.3989 66.789 24.8465C61.4145 23.5405 55.8606 26.1809 53.4753 31.176C51.4399 31.5229 49.6324 32.6823 48.467 34.3886C47.7641 34.0227 46.9828 33.8334 46.1906 33.8372C44.1707 33.8285 42.3578 35.0766 41.6432 36.9679C40.9287 38.8592 41.4627 40.9959 42.9828 42.3275C44.5029 43.6591 46.6893 43.9055 48.467 42.9456C49.8775 45.026 52.2268 46.2707 54.7384 46.2684C55.6173 46.2655 56.4892 46.1113 57.3159 45.8126C61.6742 48.9027 67.5698 48.6456 71.6431 45.1878C73.8374 47.272 77.0588 47.852 79.841 46.6638C82.6232 45.4756 84.4344 42.7464 84.4501 39.7183C84.4459 39.0989 84.3695 38.4822 84.2225 37.8805C86.2279 37.246 87.5917 35.384 87.5931 33.2785Z" fill="#9ED7F2"/>
<path d="M85.6987 37.1159C87.3465 35.8565 88.0082 33.6851 87.3431 31.7194C86.678 29.7537 84.8345 28.4317 82.7613 28.434C82.2989 28.4355 81.8391 28.5023 81.3954 28.6325C81.4484 28.2845 81.4754 27.9332 81.4762 27.5812C81.5074 23.8985 78.8946 20.7242 75.2778 20.0507C71.6609 19.3773 68.0827 21.3989 66.7892 24.8465C61.4146 23.5405 55.8608 26.1809 53.4755 31.176C51.44 31.5229 49.6325 32.6823 48.4672 34.3886C47.7643 34.0227 46.983 33.8334 46.1907 33.8372C44.1192 33.8358 42.2779 35.1583 41.6157 37.1233L85.6987 37.1159Z" fill="white"/>
<path d="M85.9185 32.6169V32.6169C85.9185 32.514 85.9185 32.4111 85.9185 32.3008C85.9103 29.8315 84.1747 27.7058 81.759 27.2065C79.3432 26.7072 76.9085 27.9709 75.9241 30.2351C75.0014 29.3633 73.6699 29.0797 72.4726 29.4999C71.7306 27.8186 70.0784 26.7239 68.2424 26.697C66.4064 26.6701 64.723 27.7161 63.9321 29.375C62.1868 27.1399 59.2652 26.1823 56.5373 26.9512C53.8094 27.7202 51.8162 30.0632 51.4923 32.8816C49.2409 31.7578 46.5048 32.6145 45.2944 34.8223C44.3574 33.7777 42.8741 33.4196 41.5644 33.9218C40.2548 34.4241 39.3901 35.6826 39.3901 37.0866C39.3901 38.4905 40.2548 39.7491 41.5644 40.2513C42.8741 40.7535 44.3574 40.3954 45.2944 39.3508C46.0457 40.7078 47.417 41.6068 48.9599 41.7538C50.5028 41.9008 52.0189 41.2768 53.0124 40.0859C53.2436 42.116 54.7591 43.7637 56.7611 44.1615C58.7631 44.5593 60.7923 43.616 61.7805 41.8282C62.967 43.4824 64.8157 44.5357 66.8423 44.7123C68.8689 44.8889 70.8716 44.1712 72.3258 42.7471C74.0034 45.2158 77.0609 46.3471 79.9392 45.5642C82.8174 44.7812 84.8825 42.2564 85.0814 39.2773C85.355 39.3473 85.6361 39.3844 85.9185 39.3875C87.167 39.4457 88.3462 38.8121 88.9878 37.7385C89.6294 36.6648 89.6294 35.325 88.9878 34.2513C88.3462 33.1776 87.167 32.544 85.9185 32.6022V32.6169Z" fill="#E7F6FD"/>
<path d="M65.9814 32.7492C66.0082 33.058 65.9681 33.3689 65.8639 33.6608C65.7588 33.9561 65.5937 34.2264 65.3792 34.4547C64.9375 34.9286 64.3192 35.1976 63.6718 35.1976C63.0245 35.1976 62.4061 34.9286 61.9645 34.4547C61.7499 34.2264 61.5849 33.9561 61.4798 33.6608C61.3751 33.369 61.335 33.058 61.3623 32.7492C61.4072 33.3436 61.6686 33.9008 62.0967 34.3151C62.9747 35.1376 64.3396 35.1376 65.2176 34.3151C65.6577 33.9062 65.93 33.348 65.9814 32.7492V32.7492Z" fill="#D6E8F2"/>
<path d="M79.17 35.1972C79.2095 35.6953 79.1445 36.1961 78.979 36.6675C78.5309 37.8963 77.4775 38.804 76.197 39.0649C74.9166 39.3257 73.5926 38.9023 72.7004 37.9466C72.356 37.5727 72.0867 37.136 71.9073 36.6602C71.7441 36.1883 71.6816 35.6874 71.7237 35.1899C71.8036 36.1474 72.2322 37.0422 72.928 37.7041C73.6096 38.3466 74.5106 38.7042 75.4468 38.7038C76.3809 38.7004 77.2798 38.3462 77.9656 37.7114C78.6587 37.0475 79.0867 36.1539 79.17 35.1972V35.1972Z" fill="#D6E8F2"/>
<path d="M55.4289 34.8517C55.4608 35.2376 55.4108 35.626 55.282 35.9911C55.1452 36.3607 54.9382 36.7002 54.6725 36.9909C54.1168 37.5785 53.3438 37.9109 52.5355 37.9098C51.7298 37.9089 50.9598 37.5767 50.4059 36.9909C50.1352 36.7026 49.9254 36.3626 49.7891 35.9911C49.6603 35.626 49.6102 35.2376 49.6422 34.8517C49.7157 35.5855 50.0491 36.2687 50.5821 36.7777C51.6809 37.8085 53.3902 37.8085 54.4889 36.7777C55.0274 36.2727 55.3619 35.5873 55.4289 34.8517Z" fill="#D6E8F2"/>
<path d="M328.254 55.1562C327.643 52.2259 325.826 49.6895 323.249 48.1709C320.673 46.6522 317.575 46.2924 314.72 47.18C313.335 43.8761 310.305 41.5542 306.757 41.0779C303.21 40.6017 299.676 42.0425 297.47 44.8643C293.19 41.8923 287.683 41.335 282.895 43.3892C278.108 45.4435 274.714 49.8201 273.912 54.9724C270.133 54.1283 266.204 55.5221 263.799 58.5603C261.394 61.5984 260.937 65.7458 262.622 69.236C264.306 72.7262 267.837 74.9445 271.709 74.9461C272.501 74.9408 273.289 74.8446 274.059 74.6594C275.257 78.1001 278.213 80.6282 281.795 81.2753C285.377 81.9224 289.029 80.5882 291.353 77.7837C293.39 80.2346 296.462 81.5799 299.642 81.4135C302.823 81.2471 305.738 79.5884 307.508 76.9383C311.785 78.4978 316.575 76.9908 319.192 73.2626C322.423 74.8831 326.272 74.655 329.289 72.6641C332.307 70.6733 334.034 67.2222 333.82 63.6109C333.607 59.9996 331.485 56.7767 328.254 55.1562V55.1562Z" fill="#9ED7F2"/>
<path d="M334.018 63.9043C333.875 60.1409 331.653 56.7695 328.254 55.1562C327.643 52.2259 325.826 49.6895 323.249 48.1709C320.673 46.6522 317.575 46.2924 314.72 47.18C313.335 43.8761 310.305 41.5542 306.757 41.0779C303.21 40.6017 299.676 42.0425 297.47 44.8643C293.19 41.8923 287.683 41.335 282.895 43.3892C278.108 45.4435 274.714 49.8201 273.912 54.9724C271.084 54.341 268.121 54.9593 265.78 56.6693C263.439 58.3792 261.947 61.0154 261.685 63.9043H334.018Z" fill="white"/>
<path d="M332.594 60.3757C330.564 57.7728 326.95 57.0231 324.053 58.604C322.48 57.017 320.339 56.125 318.105 56.1266C317.789 56.1274 317.472 56.1471 317.158 56.1854C315.638 53.1758 312.753 51.0915 309.421 50.5947C306.089 50.0979 302.723 51.2504 300.393 53.6859C299.997 53.6158 299.597 53.5789 299.196 53.5757C297.98 53.5762 296.787 53.9065 295.744 54.5314C293.764 52.1208 290.522 51.1523 287.546 52.0824C284.57 53.0124 282.454 55.6555 282.196 58.7658C280.369 56.838 277.737 55.8909 275.102 56.2127C272.468 56.5344 270.141 58.0869 268.83 60.3978C267.798 59.782 266.618 59.4569 265.416 59.4568C262.311 59.4447 259.598 61.5553 258.843 64.5706C258.088 67.5859 259.486 70.7276 262.23 72.1827C264.974 73.6378 268.356 73.0307 270.424 70.7117C273.207 73.3169 277.4 73.7012 280.609 71.6454C281.214 74.4148 283.483 76.5109 286.288 76.8922C289.094 77.2735 291.839 75.8588 293.159 73.3509C295.696 75.186 299.165 75.0087 301.502 72.9245C302.488 75.796 305.267 77.6558 308.295 77.4707C311.323 77.2855 313.855 75.1009 314.485 72.1306C317.693 73.6723 321.524 73.0114 324.031 70.4838C324.915 70.9606 325.893 71.2343 326.895 71.2851C328.815 73.6774 332.111 74.4599 334.899 73.1851C337.687 71.9103 339.255 68.9035 338.706 65.8849C338.156 62.8662 335.63 60.6062 332.572 60.3978L332.594 60.3757Z" fill="#E7F6FD"/>
<path d="M297.154 59.7949C297.211 60.5167 297.118 61.2423 296.883 61.9268C296.626 62.6204 296.237 63.2571 295.737 63.8014C294.437 65.1948 292.507 65.8111 290.641 65.4285C288.775 65.046 287.242 63.7196 286.594 61.9268C286.352 61.244 286.259 60.5168 286.323 59.7949C286.434 61.195 287.06 62.5042 288.078 63.4706C290.14 65.4162 293.359 65.4162 295.421 63.4706C296.431 62.5008 297.048 61.192 297.154 59.7949V59.7949Z" fill="#D6E8F2"/>
<path d="M310.167 59.8684C310.193 60.2295 310.146 60.5923 310.027 60.9344C309.898 61.2796 309.704 61.5966 309.454 61.868C308.804 62.561 307.841 62.867 306.91 62.6768C305.98 62.4866 305.214 61.8272 304.887 60.9344C304.764 60.5932 304.717 60.2296 304.747 59.8684C304.808 60.5641 305.119 61.2142 305.621 61.6989C306.656 62.6626 308.258 62.6626 309.293 61.6989C309.797 61.2158 310.108 60.5648 310.167 59.8684V59.8684Z" fill="#D6E8F2"/>
<path d="M320.176 62.3385C320.234 63.0609 320.139 63.7874 319.897 64.4704C319.244 66.259 317.711 67.5804 315.847 67.9611C313.983 68.3418 312.055 67.7272 310.754 66.3377C310.254 65.7961 309.865 65.1617 309.609 64.4704C309.374 63.7858 309.281 63.0603 309.337 62.3385C309.446 63.7393 310.072 65.0495 311.092 66.0142C313.159 67.9488 316.369 67.9488 318.436 66.0142C319.448 65.0455 320.068 63.7366 320.176 62.3385V62.3385Z" fill="#D6E8F2"/>
<path d="M224.351 82.2828C224.174 82.2865 223.997 82.3012 223.822 82.3269C222.705 79.5092 219.984 77.659 216.956 77.6587H216.824C217.297 74.6797 216.441 71.6428 214.482 69.3507C212.523 67.0586 209.659 65.7422 206.645 65.7495C204.823 65.7516 203.034 66.2388 201.461 67.161C198.659 61.805 192.566 59.0555 186.702 60.4997C180.837 61.944 176.714 67.2091 176.713 73.2553C173.39 73.2519 170.288 74.9272 168.467 77.7102C168.177 77.6721 167.885 77.6524 167.593 77.6514C164.471 77.6455 161.683 79.6022 160.623 82.5413C159.564 85.4804 160.462 88.7691 162.867 90.7599C165.273 92.7508 168.668 93.0151 171.353 91.4205C171.632 91.5969 171.925 91.766 172.219 91.9204C172.219 92.0601 172.219 92.1998 172.219 92.3468C172.217 95.5351 174.31 98.345 177.364 99.2518C180.417 100.159 183.703 98.9462 185.437 96.2724C190.797 100.879 198.797 100.578 203.796 95.5814C205.586 97.8209 208.507 98.8228 211.293 98.152C214.078 97.4813 216.225 95.259 216.801 92.4497H216.948C219.32 92.4574 221.549 91.3184 222.933 89.3915C223.38 89.5784 223.859 89.6734 224.343 89.6709C226.385 89.6709 228.041 88.0137 228.041 85.9695C228.041 83.9252 226.385 82.2681 224.343 82.2681L224.351 82.2828Z" fill="#9ED7F2"/>
<path d="M227.516 84.0765C226.852 82.9608 225.648 82.2788 224.351 82.2828C224.174 82.2865 223.997 82.3012 223.822 82.3269C222.705 79.5092 219.984 77.659 216.956 77.6587H216.824C217.297 74.6797 216.441 71.6428 214.483 69.3507C212.524 67.0586 209.659 65.7422 206.646 65.7495C204.823 65.7516 203.034 66.2388 201.461 67.161C198.659 61.805 192.567 59.0555 186.702 60.4997C180.837 61.944 176.714 67.2091 176.714 73.2553C173.39 73.2519 170.289 74.9272 168.467 77.7102C168.177 77.6721 167.885 77.6524 167.593 77.6514C163.883 77.6409 160.74 80.3873 160.25 84.0691L227.516 84.0765Z" fill="white"/>
<path d="M223.859 81.7682C223.58 81.7685 223.303 81.7956 223.029 81.849C222.309 80.0969 220.604 78.9531 218.711 78.9526C218.45 78.9521 218.19 78.9742 217.933 79.0187C217.382 76.3553 215.259 74.3007 212.581 73.8396C209.904 73.3785 207.217 74.6048 205.809 76.931C205.055 74.9493 203.422 73.4329 201.391 72.8302C199.36 72.2276 197.165 72.6077 195.454 73.8581C194.429 71.1653 191.823 69.4091 188.945 69.4718C186.067 69.5345 183.54 71.4026 182.633 74.1374C180.262 72.6113 177.357 72.1593 174.635 72.893C171.913 73.6267 169.627 75.4778 168.342 77.9896C164.755 75.8808 160.147 76.9425 157.842 80.409C155.537 83.8754 156.336 88.5406 159.664 91.0399C162.991 93.5391 167.689 93.0029 170.369 89.8179C172.226 91.6009 174.699 92.5966 177.272 92.5967C177.514 92.5967 177.749 92.5967 178.006 92.56C178.499 94.5642 180.166 96.0624 182.21 96.3368C184.253 96.6112 186.256 95.6058 187.259 93.8024C190.679 95.1241 194.551 94.3921 197.254 91.913C198.74 93.7841 200.987 94.8882 203.375 94.921C205.763 94.9537 208.039 93.9117 209.576 92.0821C211.295 93.584 213.652 94.1225 215.852 93.5161C218.052 92.9097 219.801 91.2392 220.51 89.0681C221.841 90.6042 224.047 91.0313 225.854 90.1021C227.66 89.173 228.598 87.1283 228.125 85.1513C227.651 83.1743 225.89 81.7771 223.859 81.7682V81.7682Z" fill="#E7F6FD"/>
<path d="M185.394 82.4371C185.43 82.8503 185.378 83.2664 185.239 83.6575C185.093 84.0522 184.871 84.4144 184.586 84.7234C183.995 85.3512 183.171 85.7071 182.309 85.7071C181.448 85.7071 180.624 85.3512 180.033 84.7234C179.747 84.4144 179.525 84.0522 179.379 83.6575C179.241 83.2664 179.189 82.8503 179.225 82.4371C179.285 83.2357 179.642 83.9829 180.224 84.5323C181.398 85.6303 183.221 85.6303 184.395 84.5323C184.977 83.9829 185.333 83.2357 185.394 82.4371Z" fill="#D6E8F2"/>
<path d="M198.575 79.1732C198.609 79.5838 198.557 79.9971 198.421 80.3861C198.275 80.7811 198.053 81.1434 197.767 81.4521C197.175 82.0803 196.35 82.4363 195.487 82.4363C194.624 82.4363 193.799 82.0803 193.207 81.4521C192.921 81.1434 192.699 80.7811 192.553 80.3861C192.418 79.9971 192.365 79.5838 192.399 79.1732C192.465 79.9682 192.82 80.7114 193.398 81.2609C194.574 82.36 196.4 82.36 197.576 81.2609C198.154 80.7114 198.51 79.9682 198.575 79.1732Z" fill="#D6E8F2"/>
<path d="M211.045 83.5178C211.108 84.3469 211.001 85.1801 210.729 85.9658C210.435 86.7605 209.988 87.4898 209.414 88.1124C208.224 89.3799 206.563 90.0986 204.825 90.0986C203.087 90.0986 201.426 89.3799 200.235 88.1124C199.661 87.4898 199.214 86.7605 198.921 85.9658C198.648 85.1804 198.543 84.3464 198.612 83.5178C198.74 85.1204 199.457 86.6186 200.624 87.7228C202.988 89.9375 206.662 89.9375 209.025 87.7228C210.192 86.6172 210.911 85.1203 211.045 83.5178V83.5178Z" fill="#D6E8F2"/>
<path opacity="0.824405" d="M190.652 154.076H197.253V145.99H190.652V143.049H197.253V134.963H190.652V130.405H187.89V118.422L182.544 120.311L181.957 111.556L181.34 120.73L175.407 122.833V130.405H172.388V134.963H165.39V143.049H172.388V145.99H165.39V154.076H172.388V203.764H168.885V159.244L147.802 180.357V185.503H143.705V151.871H140.341V140.476H120.881V152.055H116.108V185.503H110.064V125.634L76.0859 139.19V174.293H64.6814V166.941H73.1558L48.2614 149.783L23.367 166.941H31.8414V189.48H23.367V166.941V143.902H0V235.059H23.367H31.8414V235.28H64.6814V235.265H193.956V203.764H190.652V154.076V154.076Z" fill="#46DDF3"/>
<path opacity="0.824405" d="M353.75 97.5516V111.556H343.94V173.41H338.799V144.887H306.657V172.249H301.222V158.487H289.598V172.249H282.834V130.405H278.891V124.487H267.325V130.405H263.381V159.957H257.742V130.405H253.798V124.487H242.232V130.405H238.289V193.774H230.637V182.261H227.934V169.713H222.823V157.157L204.156 164.331V169.713H199.045V182.261H196.343V235.28H230.637V235.265H238.289V235.28H257.742V164.184H263.381V235.28H282.834V225.752H335.076V235.28H367.174V97.5516H353.75V97.5516Z" fill="#46DDF3"/>
<path d="M418.138 205.896V216.32L410.398 218.886V210.711H404.501V220.841L395.05 223.966V202.382H388.617V210.711H383.455V192.142H379.702V186.143H373.71V183.291H371.955V186.143H365.963V192.142H362.115V216.57L342.126 208.528L321.233 217.401V203.257H318.95V198.64H308.727V188.76H306.539V198.64H296.772V203.257H294.753V213.137H279.5V209.403H271.826V219.268H264.813V213.137H259.915V203.257L242.342 212.961V222.099H238.076V203.257L220.496 212.961V222.598L219.247 223.311V205.896H203.473V216.32L195.726 218.886V210.711H189.829V220.841L180.378 223.966V202.382H173.952V210.711H168.79V192.142H165.03V186.143H159.038V183.291H157.29V186.143H151.29V192.142H147.45V216.57L127.461 208.528L106.569 217.401V203.257H104.285V186.143H94.0627V176.263H91.867V186.143H82.1002V203.257H80.0881V213.137H64.8356V209.403H57.1617V219.268H50.1487V213.137H45.2506V203.257L27.6776 212.961V222.099H23.411V203.257L5.83073 212.961V222.598L0 225.936V235.28H5.83073H23.411V225.936H27.6776V235.28H43.1283H45.2506H106.099H106.569H147.45H149.998H167.52H168.79H173.952H176.185H180.378H189.829V235.309H195.726V235.28H203.473H214.665H219.247H220.496H238.076V225.936H242.342V235.28H257.8H259.915H320.763H321.233H362.115H364.67H382.184H383.455H388.617H390.857H395.05H404.501V235.309H410.398V235.28H418.138H433.919V205.896H418.138V205.896Z" fill="#2EC8DE"/>
</g>
<defs>
<filter id="filter0_d_0_1008" x="-4" y="-132" width="442" height="376" filterUnits="userSpaceOnUse" color-interpolation-filters="sRGB">
<feFlood flood-opacity="0" result="BackgroundImageFix"/>
<feColorMatrix in="SourceAlpha" type="matrix" values="0 0 0 0 0 0 0 0 0 0 0 0 0 0 0 0 0 0 127 0" result="hardAlpha"/>
<feOffset dy="4"/>
<feGaussianBlur stdDeviation="2"/>
<feComposite in2="hardAlpha" operator="out"/>
<feColorMatrix type="matrix" values="0 0 0 0 0 0 0 0 0 0 0 0 0 0 0 0 0 0 0.25 0"/>
<feBlend mode="normal" in2="BackgroundImageFix" result="effect1_dropShadow_0_1008"/>
<feBlend mode="normal" in="SourceGraphic" in2="effect1_dropShadow_0_1008" result="shape"/>
</filter>
<linearGradient id="paint0_linear_0_1008" x1="552.738" y1="446.508" x2="552.738" y2="-121.352" gradientUnits="userSpaceOnUse">
<stop stop-color="#BCB1FF"/>
<stop offset="0.54" stop-color="#C0B7F7"/>
<stop offset="1" stop-color="#59C8FF"/>
</linearGradient>
</defs>
</svg>
